<svg xmlns="http://www.w3.org/2000/svg" width="24" height="24" viewBox="0 0 24 24">
  <title>Education</title>
  <path d="M12 1.5c5.6 0 9.5 3.8 9.5 9.2 0 5.6-4.2 9.8-9.5 11.8-5.3-2-9.5-6.2-9.5-11.8C2.5 5.3 6.4 1.5 12 1.5Z" fill="#F8F1E4" stroke="#4F7966" stroke-width="1.1"/>
  <circle cx="12" cy="10.8" r="6.8" fill="#C4E8B2"/>
  <path d="M7.3 7.1c1.9 0 3.5.4 4.7 1.4 1.2-1 2.8-1.4 4.7-1.4v7.2c-1.9 0-3.5.4-4.7 1.4-1.2-1-2.8-1.4-4.7-1.4V7.1Zm4.1 2.2c-.8-.6-1.8-.9-2.9-.9v4.7c1.1.1 2.1.4 2.9.9V9.3Zm1.2 0V14c.8-.5 1.8-.8 2.9-.9V8.4c-1.1 0-2.1.3-2.9.9Z" fill="#F8F1E4"/>
  <path d="M17.2 5.6c-1.9.2-3.1-1-3.1-2.6 1.9-.2 3.1.9 3.1 2.6Z" fill="#E2BC6F"/>
</svg>
